<svg width="24px" height="24px" viewBox="0 0 24 24" fill="none" xmlns="http://www.w3.org/2000/svg">
<path d="M11 20.74C10.9012 20.7423 10.803 20.7238 10.7118 20.686C10.6205 20.6481 10.5382 20.5916 10.47 20.52L2.47 12.52C2.32955 12.3794 2.25066 12.1888 2.25066 11.99C2.25066 11.7913 2.32955 11.6007 2.47 11.46L10.47 3.46003C10.576 3.35806 10.7096 3.2895 10.8542 3.26288C10.9989 3.23626 11.1481 3.25274 11.2835 3.31029C11.4188 3.36783 11.5342 3.4639 11.6154 3.58653C11.6966 3.70917 11.7399 3.85296 11.74 4.00003V7.30003H21C21.1981 7.30262 21.3874 7.38247 21.5275 7.52256C21.6676 7.66265 21.7474 7.85192 21.75 8.05003V16.05C21.7474 16.2481 21.6676 16.4374 21.5275 16.5775C21.3874 16.7176 21.1981 16.7974 21 16.8H11.74V19.99C11.7402 20.139 11.6954 20.2845 11.6116 20.4076C11.5277 20.5307 11.4087 20.6257 11.27 20.68C11.1848 20.7175 11.0931 20.7379 11 20.74ZM4.07 12L10.25 18.18V16.05C10.25 15.8511 10.329 15.6603 10.4697 15.5197C10.6103 15.379 10.8011 15.3 11 15.3H20.25V8.80003H11C10.8019 8.79744 10.6126 8.71759 10.4725 8.57749C10.3324 8.4374 10.2526 8.24813 10.25 8.05003V5.82003L4.07 12Z" fill="black"/>
</svg>
