<svg width="24px" height="24px" viewBox="0 0 24 24" fill="none" xmlns="http://www.w3.org/2000/svg">
<path d="M13 20.74C12.9039 20.7541 12.8062 20.7541 12.71 20.74C12.5724 20.6823 12.4551 20.5849 12.3732 20.4602C12.2912 20.3355 12.2484 20.1892 12.25 20.04V16.7H3.00001C2.81189 16.6956 2.63208 16.6216 2.49538 16.4923C2.35868 16.363 2.27481 16.1876 2.26001 16V8.00002C2.25463 7.89856 2.26965 7.79706 2.30417 7.7015C2.3387 7.60595 2.39204 7.51829 2.46103 7.44371C2.53002 7.36913 2.61326 7.30913 2.70584 7.26727C2.79841 7.22542 2.89844 7.20255 3.00001 7.20002H12.25V4.01002C12.2498 3.86106 12.2946 3.71551 12.3784 3.59241C12.4623 3.4693 12.5813 3.37436 12.72 3.32002C12.8551 3.26039 13.0053 3.24376 13.1502 3.27238C13.2951 3.301 13.4277 3.37349 13.53 3.48002L21.53 11.48C21.6705 11.6206 21.7493 11.8113 21.7493 12.01C21.7493 12.2088 21.6705 12.3994 21.53 12.54L13.53 20.54C13.4601 20.6079 13.377 20.6608 13.2858 20.6952C13.1946 20.7296 13.0973 20.7448 13 20.74ZM3.76001 15.2H13C13.1981 15.2026 13.3874 15.2825 13.5275 15.4226C13.6676 15.5626 13.7474 15.7519 13.75 15.95V18.18L19.93 12L13.75 5.83002V8.00002C13.7477 8.19843 13.6689 8.3883 13.53 8.53002C13.3817 8.65257 13.1919 8.71343 13 8.70002H3.76001V15.2Z" fill="black"/>
</svg>
